<svg xmlns="http://www.w3.org/2000/svg" width="57" height="40" viewBox="0 0 57 40" fill="none">
<path d="M28.106 12.1297L34.8763 5.36278C35.1907 5.0482 35.5641 4.79864 35.975 4.62837C36.386 4.4581 36.8265 4.37046 37.2713 4.37046C37.7162 4.37046 38.1567 4.4581 38.5676 4.62837C38.9786 4.79864 39.3519 5.0482 39.6663 5.36278L52.2253 17.9154C52.54 18.2296 52.7897 18.6028 52.9601 19.0135C53.1304 19.4243 53.2181 19.8646 53.2181 20.3092C53.2181 20.7538 53.1304 21.1941 52.9601 21.6049C52.7897 22.0156 52.54 22.3888 52.2253 22.703L39.734 35.188C39.4196 35.5025 39.0463 35.7521 38.6353 35.9224C38.2244 36.0927 37.7839 36.1803 37.339 36.1803C36.8942 36.1803 36.4537 36.0927 36.0427 35.9224C35.6318 35.7521 35.2584 35.5025 34.944 35.188L27.9198 28.1673" stroke="#00A3C6" stroke-width="6"/>
<path d="M17.859 5.29369L5.29222 17.8541C3.97024 19.1755 3.97024 21.3177 5.29222 22.6391L17.859 35.1995C19.181 36.5208 21.3244 36.5208 22.6463 35.1995L35.2131 22.6391C36.5351 21.3177 36.5351 19.1755 35.2131 17.8541L22.6463 5.29368C21.3244 3.97236 19.181 3.97236 17.859 5.29369Z" stroke="#133961" stroke-width="6"/>
</svg>