<svg xmlns="http://www.w3.org/2000/svg" width="339" height="43" viewBox="0 0 339 43" fill="none">
<g clip-path="url(#clip0_1_12)">
<path d="M30.7961 41.5175H39.7858L24.9985 1.88612H15.8363L0.928223 41.552H9.34852L12.3853 33.0497H27.8111L30.7961 41.5175ZM20.1845 11.0438L25.4989 26.341H14.7838L20.1845 11.0438ZM52.9684 41.5175V27.4965H58.1448L67.0828 41.5175H77.0733L66.9793 26.2203C72.6215 24.3404 75.9344 20.0979 75.9344 14.7517C75.9344 6.5253 70.1369 1.88612 60.1291 1.88612H44.5999V41.552L52.9684 41.5175ZM52.9684 8.75003H59.6978C64.7706 8.75003 67.4796 10.7333 67.4796 14.6654C67.4796 18.5975 64.7706 20.5118 59.6978 20.5118H52.9684V8.75003Z" fill="#133961"/>
<path d="M112.877 29.2038C112.877 23.3574 109.115 20.1497 102.162 18.77L95.3807 17.3903C92.4992 16.8384 90.0145 15.6657 90.0145 12.9753C90.0145 10.2849 92.3094 7.95673 96.3815 7.95673C97.3203 7.91513 98.2579 8.0618 99.1391 8.38811C100.02 8.71441 100.827 9.21374 101.512 9.85666C102.197 10.4996 102.747 11.2731 103.128 12.1315C103.509 12.99 103.714 13.9161 103.732 14.8551H112.239C111.686 6.57704 105.164 1.38599 96.2779 1.38599C87.6506 1.38599 81.4734 6.5598 81.4734 13.4582C81.4734 20.0289 86.1149 23.2884 92.1368 24.4439L98.6591 25.7201C102.024 26.3755 103.956 27.8586 103.956 30.3421C103.956 33.5498 100.919 35.4296 96.6575 35.4296C91.4811 35.4296 88.7204 32.6185 88.4961 28.2553H79.9895C80.5934 36.6369 86.8914 42.0521 96.8301 42.0521C106.769 42.0521 112.877 36.7576 112.877 29.2038ZM133.669 28.652C143.332 28.652 149.353 23.7368 149.353 15.1311C149.353 6.52531 143.332 1.88613 133.669 1.88613H119.037V41.552H127.423V28.652H133.669ZM133.669 9.00873C138.414 9.00873 141.054 11.268 141.054 15.1828C141.054 19.0977 138.414 21.5811 133.669 21.5811H127.474V8.957L133.669 9.00873ZM181.723 34.2224H163.451V24.7371H179.67V17.511H163.451V9.16395H181.326V1.88613H155.048V41.552H181.723V34.2224ZM205.776 42.3453C210.666 42.5066 215.437 40.8216 219.139 37.6258C222.842 34.43 225.205 29.9577 225.757 25.0993H216.871C216.524 27.768 215.217 30.2194 213.195 31.9963C211.172 33.7732 208.572 34.7544 205.88 34.757C199.099 34.757 194.509 29.359 194.509 21.5811C194.509 13.8031 199.151 8.56034 205.88 8.56034C208.57 8.5428 211.173 9.51028 213.198 11.2801C215.223 13.0499 216.53 15.4995 216.871 18.1664H225.757C225.165 13.3362 222.787 8.90212 219.089 5.73621C215.391 2.5703 210.643 0.90162 205.776 1.05832C203.109 1.0732 200.471 1.62139 198.019 2.6706C195.566 3.71981 193.349 5.24884 191.496 7.16765C189.644 9.08647 188.195 11.3563 187.233 13.8435C186.272 16.3307 185.818 18.985 185.899 21.6501C185.899 33.2911 194.613 42.3453 205.776 42.3453ZM248.43 41.5175V9.43988H260.957V1.88613H227.552V9.43988H240.027V41.5175H248.43ZM274.312 41.5175V27.4965H279.488L288.426 41.5175H298.417L288.202 26.2203C293.844 24.3404 297.157 20.0979 297.157 14.7517C297.157 6.52531 291.36 1.88613 281.369 1.88613H265.84V41.552L274.312 41.5175ZM274.312 8.75004H281.041C286.132 8.75004 288.823 10.7333 288.823 14.6654C288.823 18.5975 286.132 20.5118 281.041 20.5118H274.312V8.75004ZM329.941 41.5175H338.948L324.144 1.85163H314.981L300.073 41.5175H308.528L311.565 33.0152H326.973L329.941 41.5175ZM319.399 11.0438L324.696 26.341H313.981L319.399 11.0438Z" fill="#00A3C6"/>
</g>
<defs>
<clipPath id="clip0_1_12">
<rect width="338.451" height="42.3064" fill="white" transform="translate(0.548584 0.548584)"/>
</clipPath>
</defs>
</svg>